<svg xmlns="http://www.w3.org/2000/svg" xmlns:xlink="http://www.w3.org/1999/xlink" width="500" zoomAndPan="magnify" viewBox="0 0 375 374.999991" height="500" preserveAspectRatio="xMidYMid meet" version="1.0"><defs><g/><clipPath id="eda73b3527"><path d="M 111.480469 110.53125 L 263.730469 110.53125 L 263.730469 149 L 111.480469 149 Z M 111.480469 110.53125 " clip-rule="nonzero"/></clipPath><clipPath id="77c52f38ae"><path d="M 128 150 L 248 150 L 248 187.78125 L 128 187.78125 Z M 128 150 " clip-rule="nonzero"/></clipPath></defs><path fill="#e40a0a" d="M 173.449219 157.128906 L 185.605469 159.046875 L 162.386719 147.65625 C 161.703125 153.261719 161.621094 157.117188 161.746094 159.675781 C 161.867188 162.253906 163.289062 164.589844 165.523438 165.871094 L 184.300781 176.621094 C 186.128906 177.667969 188.375 177.683594 190.21875 176.65625 L 209.921875 165.679688 C 211.722656 164.675781 212.839844 162.773438 212.839844 160.707031 C 212.839844 158.613281 211.695312 156.691406 209.855469 155.699219 L 175.003906 136.867188 L 184.929688 131.398438 C 186.789062 130.375 189.042969 130.394531 190.882812 131.449219 L 203.210938 138.53125 C 203.917969 138.933594 204.238281 139.789062 203.972656 140.558594 C 203.699219 141.347656 202.894531 141.820312 202.078125 141.671875 L 189.488281 139.445312 L 213.519531 151.964844 L 212.664062 138.460938 C 212.492188 135.769531 210.988281 133.339844 208.652344 131.996094 L 190.617188 121.613281 C 188.75 120.542969 186.460938 120.542969 184.597656 121.621094 C 179.320312 124.679688 168.53125 130.933594 164.191406 133.445312 C 162.890625 134.199219 162.027344 135.539062 161.871094 137.039062 C 161.832031 137.4375 161.808594 137.808594 161.800781 138.148438 C 161.765625 139.925781 162.761719 141.5625 164.335938 142.378906 L 200.679688 161.261719 L 190.617188 166.960938 C 188.746094 168.019531 186.457031 168.007812 184.597656 166.9375 L 172.460938 159.949219 C 171.988281 159.675781 171.699219 159.175781 171.699219 158.628906 C 171.699219 157.695312 172.53125 156.984375 173.449219 157.128906 Z M 173.449219 157.128906 " fill-opacity="1" fill-rule="nonzero"/><g clip-path="url(#eda73b3527)"><path fill="#e40a0a" d="M 220.726562 132.148438 C 220.734375 131.941406 220.734375 131.734375 220.746094 131.527344 C 219.574219 126.945312 213.898438 126.117188 210.546875 123.480469 C 203.601562 119.515625 196.679688 115.507812 189.789062 111.460938 C 189.78125 111.453125 189.773438 111.449219 189.765625 111.445312 C 188.480469 110.558594 186.734375 110.558594 185.449219 111.445312 C 185.441406 111.449219 185.433594 111.453125 185.425781 111.460938 C 178.535156 115.507812 171.613281 119.515625 164.667969 123.480469 C 161.316406 126.117188 155.640625 126.945312 154.46875 131.527344 C 154.480469 131.734375 154.480469 131.941406 154.484375 132.148438 L 111.480469 132.902344 L 126.925781 148.992188 L 159.265625 148.992188 L 159.265625 134.882812 C 159.265625 133.144531 160.171875 131.519531 161.671875 130.644531 C 163.109375 129.800781 164.578125 129.015625 166.023438 128.1875 C 172.3125 124.613281 186.609375 116.050781 187.605469 115.746094 C 188.605469 116.050781 202.902344 124.613281 209.191406 128.1875 C 210.636719 129.015625 212.105469 129.800781 213.542969 130.644531 C 215.039062 131.519531 215.949219 133.144531 215.949219 134.882812 L 215.949219 148.992188 L 248.285156 148.992188 L 263.730469 132.902344 Z M 220.726562 132.148438 " fill-opacity="1" fill-rule="nonzero"/></g><g clip-path="url(#77c52f38ae)"><path fill="#e40a0a" d="M 215.820312 163.183594 C 215.820312 164.910156 214.917969 166.511719 213.445312 167.402344 C 207.328125 171.105469 191.273438 180.550781 187.605469 182.636719 C 183.941406 180.550781 167.886719 171.105469 161.769531 167.402344 C 160.292969 166.511719 159.394531 164.910156 159.394531 163.183594 L 159.394531 150.457031 L 128.1875 150.457031 L 142.476562 166.203125 L 146.542969 166.203125 C 147.761719 166.25 148.988281 166.230469 150.21875 166.203125 L 154.480469 166.203125 C 154.621094 166.78125 154.617188 167.40625 154.894531 167.941406 C 159.105469 173.042969 166.132812 175.003906 171.503906 178.789062 C 172.589844 179.421875 173.671875 180.070312 174.738281 180.738281 C 178.609375 182.746094 182.308594 185.0625 186.070312 187.253906 C 186.582031 187.542969 187.097656 187.695312 187.609375 187.75 C 188.117188 187.695312 188.632812 187.542969 189.144531 187.253906 C 192.90625 185.0625 196.605469 182.746094 200.476562 180.738281 C 201.542969 180.070312 202.625 179.421875 203.710938 178.789062 C 209.082031 175.003906 216.109375 173.042969 220.324219 167.941406 C 220.601562 167.40625 220.59375 166.78125 220.734375 166.203125 L 224.996094 166.203125 C 226.226562 166.230469 227.453125 166.25 228.671875 166.203125 L 232.738281 166.203125 L 247.027344 150.457031 L 215.820312 150.457031 Z M 215.820312 163.183594 " fill-opacity="1" fill-rule="nonzero"/></g><g fill="#1b1170" fill-opacity="1"><g transform="translate(133.722652, 214.250758)"><g><path d="M 0.5625 0 L 4.5 0 L 4.746094 -1.734375 C 5.601562 -0.71875 7.175781 0.335938 9.449219 0.335938 C 12.128906 0.335938 15.414062 -0.921875 15.414062 -4.433594 C 15.414062 -9.71875 6.503906 -9.179688 6.503906 -11.496094 C 6.503906 -12.285156 7.402344 -12.691406 8.054688 -12.691406 C 9.628906 -12.691406 10.933594 -11.746094 10.933594 -10.078125 L 15.007812 -10.078125 L 15.007812 -15.726562 L 11.136719 -15.726562 L 10.914062 -13.835938 C 10.011719 -15.523438 8.101562 -16.132812 6.210938 -16.132812 C 4.003906 -16.132812 0.855469 -14.625 0.855469 -11.296875 C 0.855469 -5.558594 9.496094 -6.300781 9.496094 -4.546875 C 9.496094 -3.601562 8.371094 -3.421875 7.582031 -3.421875 C 6.636719 -3.464844 4.746094 -3.78125 4.746094 -5.671875 L 0.5625 -5.671875 Z M 0.5625 0 "/></g></g></g><g fill="#1b1170" fill-opacity="1"><g transform="translate(149.697631, 214.250758)"><g><path d="M 12.464844 -5.691406 C 12.261719 -5.46875 10.777344 -3.488281 8.886719 -3.488281 C 6.75 -3.488281 5.601562 -5.488281 5.601562 -7.71875 C 5.601562 -10.171875 6.660156 -12.171875 8.28125 -12.171875 C 9.878906 -12.171875 10.597656 -10.800781 10.664062 -9.335938 L 14.691406 -9.335938 L 14.691406 -15.726562 L 11.160156 -15.726562 L 10.640625 -14.46875 C 10.441406 -14.738281 9.425781 -15.996094 7.175781 -15.996094 C 4.230469 -15.996094 0.335938 -12.890625 0.335938 -7.71875 C 0.335938 -2.699219 3.511719 0.359375 8.28125 0.359375 C 11.226562 0.359375 13.566406 -1.125 15.097656 -2.8125 Z M 12.464844 -5.691406 "/></g></g></g><g fill="#1b1170" fill-opacity="1"><g transform="translate(165.13262, 214.250758)"><g><path d="M 0.5625 -15.726562 L 0.5625 -12.757812 L 1.980469 -12.757812 L 1.980469 -2.992188 L 0.5625 -2.992188 L 0.5625 0 L 14.128906 0 L 14.128906 -5.085938 L 10.238281 -5.085938 L 10.238281 -2.992188 L 6.636719 -2.992188 L 6.636719 -6.660156 L 10.914062 -6.660156 L 10.914062 -9.652344 L 6.636719 -9.652344 L 6.636719 -12.757812 L 10.238281 -12.757812 L 10.238281 -10.753906 L 14.128906 -10.753906 L 14.128906 -15.726562 Z M 0.5625 -15.726562 "/></g></g></g><g fill="#1b1170" fill-opacity="1"><g transform="translate(179.825105, 214.250758)"><g><path d="M 0.5625 -15.726562 L 0.5625 -12.78125 L 1.824219 -12.78125 L 1.824219 -2.96875 L 0.5625 -2.96875 L 0.5625 0 L 7.808594 0 L 7.808594 -2.96875 L 6.433594 -2.96875 L 6.433594 -6.457031 L 8.144531 -6.457031 C 11.363281 -6.457031 14.0625 -7.941406 14.0625 -10.914062 C 14.0625 -13.476562 13.074219 -15.726562 7.851562 -15.726562 Z M 6.433594 -12.800781 L 7.558594 -12.800781 C 8.863281 -12.800781 9.652344 -12.082031 9.652344 -10.753906 C 9.652344 -9.5625 8.753906 -8.886719 7.449219 -8.886719 L 6.433594 -8.886719 Z M 6.433594 -12.800781 "/></g></g></g><g fill="#1b1170" fill-opacity="1"><g transform="translate(194.22509, 214.250758)"><g><path d="M 15.433594 -15.726562 L 0.335938 -15.726562 L 0.335938 -9.878906 L 3.644531 -9.878906 L 3.644531 -12.757812 L 5.578125 -12.757812 L 5.578125 -2.992188 L 3.734375 -2.992188 L 3.734375 0 L 12.105469 0 L 12.105469 -2.992188 L 10.238281 -2.992188 L 10.238281 -12.757812 L 12.128906 -12.757812 L 12.128906 -9.878906 L 15.433594 -9.878906 Z M 15.433594 -15.726562 "/></g></g></g><g fill="#1b1170" fill-opacity="1"><g transform="translate(209.997577, 214.250758)"><g><path d="M 0.5625 -15.726562 L 0.5625 -12.78125 L 1.824219 -12.78125 L 1.824219 -2.96875 L 0.5625 -2.96875 L 0.5625 0 L 7.828125 0 L 7.828125 -2.96875 L 6.457031 -2.96875 L 6.457031 -6.457031 C 8.460938 -6.457031 8.707031 -5.960938 8.707031 -3.914062 C 8.707031 -1.28125 10.125 0.269531 13.074219 0.269531 C 15.570312 0.269531 16.359375 -1.460938 16.359375 -3.328125 L 16.359375 -4.566406 L 14.851562 -4.566406 L 14.851562 -3.824219 C 14.851562 -3.375 14.671875 -3.105469 14.332031 -3.105469 C 13.925781 -3.105469 13.792969 -3.667969 13.792969 -4.636719 C 13.792969 -6.253906 12.398438 -7.605469 10.84375 -7.828125 C 12.710938 -8.101562 14.109375 -9.335938 14.109375 -11.09375 C 14.109375 -13.65625 13.09375 -15.726562 7.875 -15.726562 Z M 6.457031 -12.800781 L 7.582031 -12.800781 C 8.886719 -12.800781 9.628906 -12.128906 9.628906 -10.800781 C 9.628906 -9.609375 8.773438 -8.976562 7.46875 -8.976562 L 6.457031 -8.976562 Z M 6.457031 -12.800781 "/></g></g></g><g fill="#1b1170" fill-opacity="1"><g transform="translate(226.580065, 214.250758)"><g><path d="M 0.5625 -15.726562 L 0.5625 -12.757812 L 1.980469 -12.757812 L 1.980469 -2.992188 L 0.5625 -2.992188 L 0.5625 0 L 14.128906 0 L 14.128906 -5.085938 L 10.238281 -5.085938 L 10.238281 -2.992188 L 6.636719 -2.992188 L 6.636719 -6.660156 L 10.914062 -6.660156 L 10.914062 -9.652344 L 6.636719 -9.652344 L 6.636719 -12.757812 L 10.238281 -12.757812 L 10.238281 -10.753906 L 14.128906 -10.753906 L 14.128906 -15.726562 Z M 0.5625 -15.726562 "/></g></g></g><g fill="#000000" fill-opacity="1"><g transform="translate(146.050059, 231.240909)"><g><path d="M 1.1875 0 L 0.265625 0 L 2.953125 -7.34375 L 3.875 -7.34375 L 6.5625 0 L 5.640625 0 L 4.890625 -2.078125 L 1.921875 -2.078125 Z M 2.203125 -2.875 L 4.609375 -2.875 L 3.4375 -6.171875 L 3.390625 -6.171875 Z M 2.203125 -2.875 "/></g></g></g><g fill="#000000" fill-opacity="1"><g transform="translate(154.598507, 231.240909)"><g><path d="M 5.703125 -7.34375 L 6.59375 -7.34375 L 6.59375 -2.484375 C 6.59375 -1.929688 6.460938 -1.457031 6.203125 -1.0625 C 5.941406 -0.675781 5.59375 -0.378906 5.15625 -0.171875 C 4.726562 0.0234375 4.253906 0.125 3.734375 0.125 C 3.222656 0.125 2.75 0.0234375 2.3125 -0.171875 C 1.882812 -0.378906 1.539062 -0.675781 1.28125 -1.0625 C 1.019531 -1.457031 0.890625 -1.929688 0.890625 -2.484375 L 0.890625 -7.34375 L 1.78125 -7.34375 L 1.78125 -2.484375 C 1.78125 -2.097656 1.867188 -1.769531 2.046875 -1.5 C 2.234375 -1.238281 2.472656 -1.039062 2.765625 -0.90625 C 3.066406 -0.769531 3.390625 -0.703125 3.734375 -0.703125 C 4.085938 -0.703125 4.410156 -0.769531 4.703125 -0.90625 C 5.003906 -1.039062 5.242188 -1.238281 5.421875 -1.5 C 5.609375 -1.769531 5.703125 -2.097656 5.703125 -2.484375 Z M 5.703125 -7.34375 "/></g></g></g><g fill="#000000" fill-opacity="1"><g transform="translate(163.806238, 231.240909)"><g><path d="M 0.484375 -6.546875 L 0.484375 -7.34375 L 6 -7.34375 L 6 -6.546875 L 3.6875 -6.546875 L 3.6875 0 L 2.796875 0 L 2.796875 -6.546875 Z M 0.484375 -6.546875 "/></g></g></g><g fill="#000000" fill-opacity="1"><g transform="translate(172.010711, 231.240909)"><g><path d="M 7.078125 -3.671875 C 7.078125 -2.898438 6.9375 -2.226562 6.65625 -1.65625 C 6.382812 -1.09375 6.003906 -0.660156 5.515625 -0.359375 C 5.023438 -0.0546875 4.46875 0.09375 3.84375 0.09375 C 3.21875 0.09375 2.660156 -0.0546875 2.171875 -0.359375 C 1.679688 -0.660156 1.296875 -1.09375 1.015625 -1.65625 C 0.742188 -2.226562 0.609375 -2.898438 0.609375 -3.671875 C 0.609375 -4.441406 0.742188 -5.109375 1.015625 -5.671875 C 1.296875 -6.242188 1.679688 -6.679688 2.171875 -6.984375 C 2.660156 -7.285156 3.21875 -7.4375 3.84375 -7.4375 C 4.46875 -7.4375 5.023438 -7.285156 5.515625 -6.984375 C 6.003906 -6.679688 6.382812 -6.242188 6.65625 -5.671875 C 6.9375 -5.109375 7.078125 -4.441406 7.078125 -3.671875 Z M 6.21875 -3.671875 C 6.21875 -4.304688 6.113281 -4.84375 5.90625 -5.28125 C 5.695312 -5.71875 5.410156 -6.046875 5.046875 -6.265625 C 4.691406 -6.492188 4.289062 -6.609375 3.84375 -6.609375 C 3.394531 -6.609375 2.988281 -6.492188 2.625 -6.265625 C 2.269531 -6.046875 1.988281 -5.71875 1.78125 -5.28125 C 1.570312 -4.84375 1.46875 -4.304688 1.46875 -3.671875 C 1.46875 -3.035156 1.570312 -2.5 1.78125 -2.0625 C 1.988281 -1.625 2.269531 -1.289062 2.625 -1.0625 C 2.988281 -0.84375 3.394531 -0.734375 3.84375 -0.734375 C 4.289062 -0.734375 4.691406 -0.84375 5.046875 -1.0625 C 5.410156 -1.289062 5.695312 -1.625 5.90625 -2.0625 C 6.113281 -2.5 6.21875 -3.035156 6.21875 -3.671875 Z M 6.21875 -3.671875 "/></g></g></g><g fill="#000000" fill-opacity="1"><g transform="translate(181.41909, 231.240909)"><g><path d="M 0.890625 -7.34375 L 1.953125 -7.34375 L 4.4375 -1.25 L 4.53125 -1.25 L 7.03125 -7.34375 L 8.09375 -7.34375 L 8.09375 0 L 7.25 0 L 7.25 -5.578125 L 7.1875 -5.578125 L 4.890625 0 L 4.09375 0 L 1.796875 -5.578125 L 1.71875 -5.578125 L 1.71875 0 L 0.890625 0 Z M 0.890625 -7.34375 "/></g></g></g><g fill="#000000" fill-opacity="1"><g transform="translate(192.346695, 231.240909)"><g><path d="M 7.078125 -3.671875 C 7.078125 -2.898438 6.9375 -2.226562 6.65625 -1.65625 C 6.382812 -1.09375 6.003906 -0.660156 5.515625 -0.359375 C 5.023438 -0.0546875 4.46875 0.09375 3.84375 0.09375 C 3.21875 0.09375 2.660156 -0.0546875 2.171875 -0.359375 C 1.679688 -0.660156 1.296875 -1.09375 1.015625 -1.65625 C 0.742188 -2.226562 0.609375 -2.898438 0.609375 -3.671875 C 0.609375 -4.441406 0.742188 -5.109375 1.015625 -5.671875 C 1.296875 -6.242188 1.679688 -6.679688 2.171875 -6.984375 C 2.660156 -7.285156 3.21875 -7.4375 3.84375 -7.4375 C 4.46875 -7.4375 5.023438 -7.285156 5.515625 -6.984375 C 6.003906 -6.679688 6.382812 -6.242188 6.65625 -5.671875 C 6.9375 -5.109375 7.078125 -4.441406 7.078125 -3.671875 Z M 6.21875 -3.671875 C 6.21875 -4.304688 6.113281 -4.84375 5.90625 -5.28125 C 5.695312 -5.71875 5.410156 -6.046875 5.046875 -6.265625 C 4.691406 -6.492188 4.289062 -6.609375 3.84375 -6.609375 C 3.394531 -6.609375 2.988281 -6.492188 2.625 -6.265625 C 2.269531 -6.046875 1.988281 -5.71875 1.78125 -5.28125 C 1.570312 -4.84375 1.46875 -4.304688 1.46875 -3.671875 C 1.46875 -3.035156 1.570312 -2.5 1.78125 -2.0625 C 1.988281 -1.625 2.269531 -1.289062 2.625 -1.0625 C 2.988281 -0.84375 3.394531 -0.734375 3.84375 -0.734375 C 4.289062 -0.734375 4.691406 -0.84375 5.046875 -1.0625 C 5.410156 -1.289062 5.695312 -1.625 5.90625 -2.0625 C 6.113281 -2.5 6.21875 -3.035156 6.21875 -3.671875 Z M 6.21875 -3.671875 "/></g></g></g><g fill="#000000" fill-opacity="1"><g transform="translate(201.755077, 231.240909)"><g><path d="M 0.484375 -6.546875 L 0.484375 -7.34375 L 6 -7.34375 L 6 -6.546875 L 3.6875 -6.546875 L 3.6875 0 L 2.796875 0 L 2.796875 -6.546875 Z M 0.484375 -6.546875 "/></g></g></g><g fill="#000000" fill-opacity="1"><g transform="translate(209.959552, 231.240909)"><g><path d="M 1.78125 -7.34375 L 1.78125 0 L 0.890625 0 L 0.890625 -7.34375 Z M 1.78125 -7.34375 "/></g></g></g><g fill="#000000" fill-opacity="1"><g transform="translate(214.351633, 231.240909)"><g><path d="M 1.1875 -7.34375 L 3.375 -1.15625 L 3.453125 -1.15625 L 5.640625 -7.34375 L 6.5625 -7.34375 L 3.875 0 L 2.953125 0 L 0.265625 -7.34375 Z M 1.1875 -7.34375 "/></g></g></g><g fill="#000000" fill-opacity="1"><g transform="translate(222.900083, 231.240909)"><g><path d="M 0.890625 0 L 0.890625 -7.34375 L 5.3125 -7.34375 L 5.3125 -6.546875 L 1.78125 -6.546875 L 1.78125 -4.078125 L 5.09375 -4.078125 L 5.09375 -3.28125 L 1.78125 -3.28125 L 1.78125 -0.78125 L 5.375 -0.78125 L 5.375 0 Z M 0.890625 0 "/></g></g></g><path stroke-linecap="butt" transform="matrix(0.752432, 0, 0, 0.75, 241.831937, 227.490909)" fill="none" stroke-linejoin="miter" d="M 0.000124703 0.501705 L 28.916762 0.501705 " stroke="#e40a0a" stroke-width="1" stroke-opacity="1" stroke-miterlimit="4"/><path stroke-linecap="butt" transform="matrix(0.752432, 0, 0, 0.75, 111.482232, 227.490909)" fill="none" stroke-linejoin="miter" d="M -0.00234284 0.501705 L 28.914294 0.501705 " stroke="#e40a0a" stroke-width="1" stroke-opacity="1" stroke-miterlimit="4"/></svg>