<svg xmlns="http://www.w3.org/2000/svg" xmlns:xlink="http://www.w3.org/1999/xlink" width="500" zoomAndPan="magnify" viewBox="0 0 375 374.999991" height="500" preserveAspectRatio="xMidYMid meet" version="1.0"><defs><g/><clipPath id="8affb87ac8"><path d="M 2.765625 38 L 372.515625 38 L 372.515625 131 L 2.765625 131 Z M 2.765625 38 " clip-rule="nonzero"/></clipPath><clipPath id="0ebe8da4bf"><path d="M 43 134 L 332 134 L 332 224.25 L 43 224.25 Z M 43 134 " clip-rule="nonzero"/></clipPath></defs><path fill="#e40a0a" d="M 153.261719 150.144531 L 182.785156 154.785156 L 126.390625 127.242188 C 124.730469 140.800781 124.535156 150.117188 124.832031 156.300781 C 125.128906 162.53125 128.582031 168.175781 134.011719 171.273438 L 179.605469 197.261719 C 184.050781 199.792969 189.503906 199.828125 193.980469 197.34375 L 241.832031 170.816406 C 246.207031 168.390625 248.921875 163.789062 248.921875 158.792969 C 248.921875 153.734375 246.140625 149.085938 241.675781 146.6875 L 157.03125 101.164062 L 181.140625 87.945312 C 185.648438 85.472656 191.125 85.523438 195.589844 88.074219 L 225.539062 105.1875 C 227.253906 106.167969 228.027344 108.226562 227.382812 110.089844 C 226.71875 111.996094 224.769531 113.136719 222.78125 112.785156 L 192.210938 107.402344 L 250.566406 137.660156 L 248.492188 105.023438 C 248.078125 98.511719 244.421875 92.644531 238.75 89.394531 L 194.945312 64.300781 C 190.417969 61.707031 184.855469 61.710938 180.332031 64.316406 C 167.511719 71.710938 141.308594 86.820312 130.773438 92.898438 C 127.609375 94.722656 125.519531 97.953125 125.140625 101.578125 C 125.039062 102.546875 124.988281 103.441406 124.96875 104.265625 C 124.878906 108.5625 127.304688 112.515625 131.128906 114.492188 L 219.386719 160.132812 L 194.945312 173.90625 C 190.40625 176.464844 184.847656 176.445312 180.328125 173.855469 L 150.855469 156.960938 C 149.710938 156.304688 149.003906 155.089844 149.003906 153.773438 C 149.003906 151.515625 151.023438 149.792969 153.261719 150.144531 Z M 153.261719 150.144531 " fill-opacity="1" fill-rule="nonzero"/><g clip-path="url(#8affb87ac8)"><path fill="#e40a0a" d="M 268.078125 89.761719 C 268.09375 89.261719 268.09375 88.761719 268.121094 88.265625 C 265.273438 77.183594 251.492188 75.179688 243.347656 68.804688 C 226.488281 59.222656 209.675781 49.539062 192.9375 39.753906 C 192.921875 39.742188 192.902344 39.730469 192.886719 39.71875 C 189.757812 37.570312 185.523438 37.570312 182.394531 39.71875 C 182.378906 39.730469 182.359375 39.742188 182.34375 39.753906 C 165.605469 49.539062 148.792969 59.222656 131.933594 68.804688 C 123.789062 75.179688 110.007812 77.183594 107.160156 88.265625 C 107.1875 88.761719 107.1875 89.261719 107.203125 89.761719 L 2.765625 91.582031 L 40.277344 130.480469 L 118.804688 130.480469 L 118.804688 96.375 C 118.804688 92.167969 121.015625 88.246094 124.660156 86.125 C 128.144531 84.089844 131.714844 82.1875 135.21875 80.1875 C 150.5 71.542969 185.214844 50.851562 187.640625 50.117188 C 190.066406 50.847656 224.78125 71.542969 240.0625 80.1875 C 243.570312 82.1875 247.136719 84.089844 250.625 86.125 C 254.265625 88.246094 256.476562 92.167969 256.476562 96.375 L 256.476562 130.480469 L 335.007812 130.480469 L 372.515625 91.582031 Z M 268.078125 89.761719 " fill-opacity="1" fill-rule="nonzero"/></g><g clip-path="url(#0ebe8da4bf)"><path fill="#e40a0a" d="M 256.160156 164.78125 C 256.160156 168.957031 253.972656 172.824219 250.386719 174.980469 C 235.535156 183.925781 196.546875 206.757812 187.640625 211.800781 C 178.734375 206.757812 139.746094 183.925781 124.894531 174.980469 C 121.3125 172.824219 119.125 168.957031 119.125 164.78125 L 119.125 134.011719 L 43.335938 134.011719 L 78.039062 172.078125 L 87.914062 172.078125 C 90.871094 172.191406 93.855469 172.140625 96.839844 172.078125 L 107.191406 172.078125 C 107.527344 173.472656 107.519531 174.988281 108.191406 176.28125 C 118.417969 188.613281 135.484375 193.351562 148.53125 202.503906 C 151.171875 204.03125 153.796875 205.597656 156.390625 207.207031 C 165.789062 212.066406 174.773438 217.667969 183.90625 222.960938 C 185.152344 223.660156 186.402344 224.027344 187.640625 224.160156 C 188.882812 224.027344 190.132812 223.660156 191.378906 222.960938 C 200.511719 217.667969 209.496094 212.066406 218.894531 207.207031 C 221.488281 205.597656 224.109375 204.03125 226.753906 202.503906 C 239.796875 193.351562 256.863281 188.613281 267.09375 176.28125 C 267.765625 174.988281 267.753906 173.472656 268.09375 172.078125 L 278.445312 172.078125 C 281.429688 172.140625 284.414062 172.191406 287.371094 172.078125 L 297.242188 172.078125 L 331.945312 134.011719 L 256.160156 134.011719 Z M 256.160156 164.78125 " fill-opacity="1" fill-rule="nonzero"/></g><g fill="#1b1170" fill-opacity="1"><g transform="translate(56.813222, 289.551686)"><g><path d="M 1.367188 0 L 10.9375 0 L 11.539062 -4.210938 C 13.613281 -1.75 17.441406 0.820312 22.964844 0.820312 C 29.472656 0.820312 37.453125 -2.242188 37.453125 -10.773438 C 37.453125 -23.621094 15.800781 -22.308594 15.800781 -27.941406 C 15.800781 -29.855469 17.988281 -30.839844 19.574219 -30.839844 C 23.402344 -30.839844 26.574219 -28.542969 26.574219 -24.496094 L 36.46875 -24.496094 L 36.46875 -38.21875 L 27.066406 -38.21875 L 26.519531 -33.628906 C 24.332031 -37.726562 19.683594 -39.203125 15.089844 -39.203125 C 9.734375 -39.203125 2.078125 -35.539062 2.078125 -27.449219 C 2.078125 -13.503906 23.074219 -15.308594 23.074219 -11.046875 C 23.074219 -8.75 20.339844 -8.3125 18.425781 -8.3125 C 16.128906 -8.421875 11.539062 -9.1875 11.539062 -13.777344 L 1.367188 -13.777344 Z M 1.367188 0 "/></g></g></g><g fill="#1b1170" fill-opacity="1"><g transform="translate(95.634746, 289.551686)"><g><path d="M 30.292969 -13.832031 C 29.800781 -13.285156 26.191406 -8.476562 21.597656 -8.476562 C 16.402344 -8.476562 13.613281 -13.339844 13.613281 -18.753906 C 13.613281 -24.714844 16.183594 -29.582031 20.121094 -29.582031 C 24.003906 -29.582031 25.753906 -26.246094 25.917969 -22.691406 L 35.703125 -22.691406 L 35.703125 -38.21875 L 27.121094 -38.21875 L 25.863281 -35.15625 C 25.371094 -35.8125 22.910156 -38.875 17.441406 -38.875 C 10.28125 -38.875 0.820312 -31.332031 0.820312 -18.753906 C 0.820312 -6.5625 8.53125 0.875 20.121094 0.875 C 27.285156 0.875 32.972656 -2.734375 36.6875 -6.835938 Z M 30.292969 -13.832031 "/></g></g></g><g fill="#1b1170" fill-opacity="1"><g transform="translate(133.144017, 289.551686)"><g><path d="M 1.367188 -38.21875 L 1.367188 -31.003906 L 4.8125 -31.003906 L 4.8125 -7.273438 L 1.367188 -7.273438 L 1.367188 0 L 34.339844 0 L 34.339844 -12.355469 L 24.878906 -12.355469 L 24.878906 -7.273438 L 16.128906 -7.273438 L 16.128906 -16.183594 L 26.519531 -16.183594 L 26.519531 -23.457031 L 16.128906 -23.457031 L 16.128906 -31.003906 L 24.878906 -31.003906 L 24.878906 -26.136719 L 34.339844 -26.136719 L 34.339844 -38.21875 Z M 1.367188 -38.21875 "/></g></g></g><g fill="#1b1170" fill-opacity="1"><g transform="translate(168.848894, 289.551686)"><g><path d="M 1.367188 -38.21875 L 1.367188 -31.058594 L 4.429688 -31.058594 L 4.429688 -7.21875 L 1.367188 -7.21875 L 1.367188 0 L 18.972656 0 L 18.972656 -7.21875 L 15.636719 -7.21875 L 15.636719 -15.691406 L 19.792969 -15.691406 C 27.613281 -15.691406 34.175781 -19.300781 34.175781 -26.519531 C 34.175781 -32.753906 31.769531 -38.21875 19.082031 -38.21875 Z M 15.636719 -31.113281 L 18.371094 -31.113281 C 21.542969 -31.113281 23.457031 -29.363281 23.457031 -26.136719 C 23.457031 -23.238281 21.269531 -21.597656 18.097656 -21.597656 L 15.636719 -21.597656 Z M 15.636719 -31.113281 "/></g></g></g><g fill="#1b1170" fill-opacity="1"><g transform="translate(203.842955, 289.551686)"><g><path d="M 37.507812 -38.21875 L 0.820312 -38.21875 L 0.820312 -24.003906 L 8.859375 -24.003906 L 8.859375 -31.003906 L 13.558594 -31.003906 L 13.558594 -7.273438 L 9.078125 -7.273438 L 9.078125 0 L 29.417969 0 L 29.417969 -7.273438 L 24.878906 -7.273438 L 24.878906 -31.003906 L 29.472656 -31.003906 L 29.472656 -24.003906 L 37.507812 -24.003906 Z M 37.507812 -38.21875 "/></g></g></g><g fill="#1b1170" fill-opacity="1"><g transform="translate(242.172394, 289.551686)"><g><path d="M 1.367188 -38.21875 L 1.367188 -31.058594 L 4.429688 -31.058594 L 4.429688 -7.21875 L 1.367188 -7.21875 L 1.367188 0 L 19.027344 0 L 19.027344 -7.21875 L 15.691406 -7.21875 L 15.691406 -15.691406 C 20.558594 -15.691406 21.160156 -14.488281 21.160156 -9.515625 C 21.160156 -3.117188 24.605469 0.65625 31.769531 0.65625 C 37.835938 0.65625 39.75 -3.554688 39.75 -8.09375 L 39.75 -11.101562 L 36.085938 -11.101562 L 36.085938 -9.296875 C 36.085938 -8.203125 35.648438 -7.546875 34.828125 -7.546875 C 33.847656 -7.546875 33.519531 -8.914062 33.519531 -11.265625 C 33.519531 -15.199219 30.128906 -18.480469 26.355469 -19.027344 C 30.894531 -19.683594 34.285156 -22.691406 34.285156 -26.957031 C 34.285156 -33.191406 31.824219 -38.21875 19.136719 -38.21875 Z M 15.691406 -31.113281 L 18.425781 -31.113281 C 21.597656 -31.113281 23.402344 -29.472656 23.402344 -26.246094 C 23.402344 -23.347656 21.324219 -21.816406 18.152344 -21.816406 L 15.691406 -21.816406 Z M 15.691406 -31.113281 "/></g></g></g><g fill="#1b1170" fill-opacity="1"><g transform="translate(282.470253, 289.551686)"><g><path d="M 1.367188 -38.21875 L 1.367188 -31.003906 L 4.8125 -31.003906 L 4.8125 -7.273438 L 1.367188 -7.273438 L 1.367188 0 L 34.339844 0 L 34.339844 -12.355469 L 24.878906 -12.355469 L 24.878906 -7.273438 L 16.128906 -7.273438 L 16.128906 -16.183594 L 26.519531 -16.183594 L 26.519531 -23.457031 L 16.128906 -23.457031 L 16.128906 -31.003906 L 24.878906 -31.003906 L 24.878906 -26.136719 L 34.339844 -26.136719 L 34.339844 -38.21875 Z M 1.367188 -38.21875 "/></g></g></g><g fill="#000000" fill-opacity="1"><g transform="translate(86.770601, 330.840198)"><g><path d="M 2.890625 0 L 0.625 0 L 7.171875 -17.84375 L 9.40625 -17.84375 L 15.953125 0 L 13.6875 0 L 11.90625 -5.046875 L 4.6875 -5.046875 Z M 5.359375 -6.96875 L 11.21875 -6.96875 L 8.359375 -15.015625 L 8.21875 -15.015625 Z M 5.359375 -6.96875 "/></g></g></g><g fill="#000000" fill-opacity="1"><g transform="translate(107.544574, 330.840198)"><g><path d="M 13.875 -17.84375 L 16.03125 -17.84375 L 16.03125 -6.03125 C 16.03125 -4.695312 15.710938 -3.554688 15.078125 -2.609375 C 14.441406 -1.660156 13.597656 -0.9375 12.546875 -0.4375 C 11.492188 0.0625 10.34375 0.3125 9.09375 0.3125 C 7.84375 0.3125 6.691406 0.0625 5.640625 -0.4375 C 4.585938 -0.9375 3.742188 -1.660156 3.109375 -2.609375 C 2.472656 -3.554688 2.15625 -4.695312 2.15625 -6.03125 L 2.15625 -17.84375 L 4.328125 -17.84375 L 4.328125 -6.03125 C 4.328125 -5.101562 4.546875 -4.316406 4.984375 -3.671875 C 5.421875 -3.023438 6.003906 -2.535156 6.734375 -2.203125 C 7.460938 -1.867188 8.25 -1.703125 9.09375 -1.703125 C 9.9375 -1.703125 10.722656 -1.867188 11.453125 -2.203125 C 12.179688 -2.535156 12.765625 -3.023438 13.203125 -3.671875 C 13.648438 -4.316406 13.875 -5.101562 13.875 -6.03125 Z M 13.875 -17.84375 "/></g></g></g><g fill="#000000" fill-opacity="1"><g transform="translate(129.920699, 330.840198)"><g><path d="M 1.1875 -15.921875 L 1.1875 -17.84375 L 14.5625 -17.84375 L 14.5625 -15.921875 L 8.953125 -15.921875 L 8.953125 0 L 6.796875 0 L 6.796875 -15.921875 Z M 1.1875 -15.921875 "/></g></g></g><g fill="#000000" fill-opacity="1"><g transform="translate(149.858764, 330.840198)"><g><path d="M 17.21875 -8.921875 C 17.21875 -7.035156 16.875 -5.40625 16.1875 -4.03125 C 15.507812 -2.664062 14.578125 -1.609375 13.390625 -0.859375 C 12.210938 -0.117188 10.863281 0.25 9.34375 0.25 C 7.820312 0.25 6.46875 -0.117188 5.28125 -0.859375 C 4.09375 -1.609375 3.160156 -2.664062 2.484375 -4.03125 C 1.804688 -5.40625 1.46875 -7.035156 1.46875 -8.921875 C 1.46875 -10.804688 1.804688 -12.429688 2.484375 -13.796875 C 3.160156 -15.171875 4.09375 -16.226562 5.28125 -16.96875 C 6.46875 -17.707031 7.820312 -18.078125 9.34375 -18.078125 C 10.863281 -18.078125 12.210938 -17.707031 13.390625 -16.96875 C 14.578125 -16.226562 15.507812 -15.171875 16.1875 -13.796875 C 16.875 -12.429688 17.21875 -10.804688 17.21875 -8.921875 Z M 15.125 -8.921875 C 15.125 -10.460938 14.863281 -11.765625 14.34375 -12.828125 C 13.832031 -13.890625 13.140625 -14.691406 12.265625 -15.234375 C 11.390625 -15.785156 10.414062 -16.0625 9.34375 -16.0625 C 8.257812 -16.0625 7.28125 -15.785156 6.40625 -15.234375 C 5.53125 -14.691406 4.832031 -13.890625 4.3125 -12.828125 C 3.800781 -11.765625 3.546875 -10.460938 3.546875 -8.921875 C 3.546875 -7.378906 3.800781 -6.078125 4.3125 -5.015625 C 4.832031 -3.953125 5.53125 -3.144531 6.40625 -2.59375 C 7.28125 -2.050781 8.257812 -1.78125 9.34375 -1.78125 C 10.414062 -1.78125 11.390625 -2.050781 12.265625 -2.59375 C 13.140625 -3.144531 13.832031 -3.953125 14.34375 -5.015625 C 14.863281 -6.078125 15.125 -7.378906 15.125 -8.921875 Z M 15.125 -8.921875 "/></g></g></g><g fill="#000000" fill-opacity="1"><g transform="translate(172.722494, 330.840198)"><g><path d="M 2.15625 -17.84375 L 4.734375 -17.84375 L 10.796875 -3.03125 L 11.015625 -3.03125 L 17.078125 -17.84375 L 19.65625 -17.84375 L 19.65625 0 L 17.625 0 L 17.625 -13.5625 L 17.453125 -13.5625 L 11.875 0 L 9.9375 0 L 4.359375 -13.5625 L 4.1875 -13.5625 L 4.1875 0 L 2.15625 0 Z M 2.15625 -17.84375 "/></g></g></g><g fill="#000000" fill-opacity="1"><g transform="translate(199.278165, 330.840198)"><g><path d="M 17.21875 -8.921875 C 17.21875 -7.035156 16.875 -5.40625 16.1875 -4.03125 C 15.507812 -2.664062 14.578125 -1.609375 13.390625 -0.859375 C 12.210938 -0.117188 10.863281 0.25 9.34375 0.25 C 7.820312 0.25 6.46875 -0.117188 5.28125 -0.859375 C 4.09375 -1.609375 3.160156 -2.664062 2.484375 -4.03125 C 1.804688 -5.40625 1.46875 -7.035156 1.46875 -8.921875 C 1.46875 -10.804688 1.804688 -12.429688 2.484375 -13.796875 C 3.160156 -15.171875 4.09375 -16.226562 5.28125 -16.96875 C 6.46875 -17.707031 7.820312 -18.078125 9.34375 -18.078125 C 10.863281 -18.078125 12.210938 -17.707031 13.390625 -16.96875 C 14.578125 -16.226562 15.507812 -15.171875 16.1875 -13.796875 C 16.875 -12.429688 17.21875 -10.804688 17.21875 -8.921875 Z M 15.125 -8.921875 C 15.125 -10.460938 14.863281 -11.765625 14.34375 -12.828125 C 13.832031 -13.890625 13.140625 -14.691406 12.265625 -15.234375 C 11.390625 -15.785156 10.414062 -16.0625 9.34375 -16.0625 C 8.257812 -16.0625 7.28125 -15.785156 6.40625 -15.234375 C 5.53125 -14.691406 4.832031 -13.890625 4.3125 -12.828125 C 3.800781 -11.765625 3.546875 -10.460938 3.546875 -8.921875 C 3.546875 -7.378906 3.800781 -6.078125 4.3125 -5.015625 C 4.832031 -3.953125 5.53125 -3.144531 6.40625 -2.59375 C 7.28125 -2.050781 8.257812 -1.78125 9.34375 -1.78125 C 10.414062 -1.78125 11.390625 -2.050781 12.265625 -2.59375 C 13.140625 -3.144531 13.832031 -3.953125 14.34375 -5.015625 C 14.863281 -6.078125 15.125 -7.378906 15.125 -8.921875 Z M 15.125 -8.921875 "/></g></g></g><g fill="#000000" fill-opacity="1"><g transform="translate(222.141902, 330.840198)"><g><path d="M 1.1875 -15.921875 L 1.1875 -17.84375 L 14.5625 -17.84375 L 14.5625 -15.921875 L 8.953125 -15.921875 L 8.953125 0 L 6.796875 0 L 6.796875 -15.921875 Z M 1.1875 -15.921875 "/></g></g></g><g fill="#000000" fill-opacity="1"><g transform="translate(242.07997, 330.840198)"><g><path d="M 4.328125 -17.84375 L 4.328125 0 L 2.15625 0 L 2.15625 -17.84375 Z M 4.328125 -17.84375 "/></g></g></g><g fill="#000000" fill-opacity="1"><g transform="translate(252.753369, 330.840198)"><g><path d="M 2.890625 -17.84375 L 8.1875 -2.828125 L 8.390625 -2.828125 L 13.6875 -17.84375 L 15.953125 -17.84375 L 9.40625 0 L 7.171875 0 L 0.625 -17.84375 Z M 2.890625 -17.84375 "/></g></g></g><g fill="#000000" fill-opacity="1"><g transform="translate(273.527347, 330.840198)"><g><path d="M 2.15625 0 L 2.15625 -17.84375 L 12.921875 -17.84375 L 12.921875 -15.921875 L 4.328125 -15.921875 L 4.328125 -9.890625 L 12.375 -9.890625 L 12.375 -7.984375 L 4.328125 -7.984375 L 4.328125 -1.921875 L 13.0625 -1.921875 L 13.0625 0 Z M 2.15625 0 "/></g></g></g><path stroke-linecap="butt" transform="matrix(0.747165, 0, 0, 0.75, 319.534524, 321.513466)" fill="none" stroke-linejoin="miter" d="M 0.000845774 1.49767 L 70.266475 1.49767 " stroke="#e40a0a" stroke-width="3" stroke-opacity="1" stroke-miterlimit="4"/><path stroke-linecap="butt" transform="matrix(0.747165, 0, 0, 0.75, 2.76575, 321.513466)" fill="none" stroke-linejoin="miter" d="M -0.000167222 1.49767 L 70.265462 1.49767 " stroke="#e40a0a" stroke-width="3" stroke-opacity="1" stroke-miterlimit="4"/></svg>